M48
;DRILL file {KiCad (5.0.0)} date 10/04/18 02:53:43
;FORMAT={-:-/ absolute / inch / decimal}
FMAT,2
INCH,TZ
T1C0.0157
T2C0.0197
T3C0.0394
%
G90
G05
M72
T1
X4.73Y-3.686
X4.9Y-3.85
X4.92Y-3.686
X4.9881Y-3.3819
X5.05Y-4.077
X5.061Y-4.5984
X5.1Y-4.35
X5.1016Y-4.5984
X5.15Y-3.85
X5.2Y-3.9201
X5.25Y-4.32
X5.27Y-4.44
X5.3263Y-4.177
X5.3613Y-4.442
X5.37Y-4.28
X5.3977Y-4.15
X5.4Y-3.56
X5.4Y-3.6
X5.4263Y-4.202
X5.44Y-3.56
X5.44Y-3.6
X5.48Y-3.56
X5.48Y-3.6
X5.4975Y-4.446
X5.5Y-4.3
X5.52Y-3.56
X5.52Y-3.6
X5.56Y-3.56
X5.56Y-3.6
X5.85Y-4.1
X5.881Y-3.901
X5.95Y-2.95
X5.95Y-3.
X5.95Y-3.05
X5.95Y-3.2
X5.95Y-3.25
X5.95Y-3.3
T3
X5.74Y-3.81
X5.84Y-3.81
X5.53Y-3.99
X5.63Y-3.99
X5.73Y-3.99
X5.83Y-3.99
T2
X5.2048Y-4.6327G85X5.2048Y-4.6563
G05
X5.219Y-4.3984G85X5.219Y-4.422
G05
X5.5442Y-4.3984G85X5.5442Y-4.422
G05
X5.5584Y-4.6327G85X5.5584Y-4.6563
G05
T0
M30
