G04 #@! TF.GenerationSoftware,KiCad,Pcbnew,(5.0.0)*
G04 #@! TF.CreationDate,2018-10-04T02:53:49+10:00*
G04 #@! TF.ProjectId,usbPdTo180vdc,7573625064546F3138307664632E6B69,1*
G04 #@! TF.SameCoordinates,Original*
G04 #@! TF.FileFunction,Copper,L2,Bot,Signal*
G04 #@! TF.FilePolarity,Positive*
%FSLAX46Y46*%
G04 Gerber Fmt 4.6, Leading zero omitted, Abs format (unit mm)*
G04 Created by KiCad (PCBNEW (5.0.0)) date 10/04/18 02:53:49*
%MOMM*%
%LPD*%
G01*
G04 APERTURE LIST*
G04 #@! TA.AperFunction,ComponentPad*
%ADD10O,0.800000X1.400000*%
G04 #@! TD*
G04 #@! TA.AperFunction,ComponentPad*
%ADD11R,1.700000X1.700000*%
G04 #@! TD*
G04 #@! TA.AperFunction,ComponentPad*
%ADD12O,1.700000X1.700000*%
G04 #@! TD*
G04 #@! TA.AperFunction,ViaPad*
%ADD13C,0.800000*%
G04 #@! TD*
G04 #@! TA.AperFunction,Conductor*
%ADD14C,0.250000*%
G04 #@! TD*
G04 #@! TA.AperFunction,Conductor*
%ADD15C,0.254000*%
G04 #@! TD*
G04 APERTURE END LIST*
D10*
G04 #@! TO.P,J1,S1*
G04 #@! TO.N,N/C*
X132202091Y-117969573D03*
X141182091Y-117969573D03*
X140822091Y-112019573D03*
X132562091Y-112019573D03*
G04 #@! TD*
D11*
G04 #@! TO.P,J4,1*
G04 #@! TO.N,GND*
X148082000Y-101346000D03*
D12*
G04 #@! TO.P,J4,2*
G04 #@! TO.N,+3V3*
X145542000Y-101346000D03*
G04 #@! TO.P,J4,3*
G04 #@! TO.N,SDA*
X143002000Y-101346000D03*
G04 #@! TO.P,J4,4*
G04 #@! TO.N,SCL*
X140462000Y-101346000D03*
G04 #@! TD*
D11*
G04 #@! TO.P,J2,1*
G04 #@! TO.N,GND*
X148336000Y-96774000D03*
D12*
G04 #@! TO.P,J2,2*
G04 #@! TO.N,HV+*
X145796000Y-96774000D03*
G04 #@! TD*
D13*
G04 #@! TO.N,GND*
X151130000Y-83820000D03*
X151130000Y-82550000D03*
X151130000Y-81280000D03*
X151130000Y-77470000D03*
X151130000Y-76200000D03*
X151130000Y-74930000D03*
X130810000Y-97790000D03*
X132080000Y-99569573D03*
X124460000Y-97790000D03*
X128270000Y-103556664D03*
X129540000Y-110490000D03*
X137102091Y-105410000D03*
X139700000Y-109220000D03*
X133350000Y-109729146D03*
X133858000Y-112776000D03*
X139636500Y-112928400D03*
X139192000Y-90424000D03*
X140208000Y-90424000D03*
X141224000Y-90424000D03*
X141224000Y-91440000D03*
X140208000Y-91440000D03*
X139192000Y-91440000D03*
X138176000Y-90424000D03*
X138176000Y-91440000D03*
X148590000Y-104140000D03*
X149377400Y-99085400D03*
X129580427Y-116799573D03*
X128549400Y-116799573D03*
X126697763Y-85900237D03*
X120142000Y-93625015D03*
X124968000Y-93625015D03*
X137160000Y-90424000D03*
X137160000Y-91440000D03*
G04 #@! TO.N,Net-(D3-Pad1)*
X136176091Y-112825573D03*
X137827091Y-106729573D03*
G04 #@! TO.N,Net-(D3-Pad2)*
X136398000Y-108712000D03*
X135287091Y-106094573D03*
G04 #@! TD*
D14*
G04 #@! TO.N,Net-(D3-Pad1)*
X137827091Y-111174573D02*
X137827091Y-106729573D01*
X136176091Y-112825573D02*
X137827091Y-111174573D01*
G04 #@! TO.N,Net-(D3-Pad2)*
X136398000Y-107205482D02*
X135287091Y-106094573D01*
X136398000Y-108712000D02*
X136398000Y-107205482D01*
G04 #@! TD*
D15*
G04 #@! TO.N,GND*
G36*
X153281004Y-68982533D02*
X153679393Y-69194360D01*
X154029051Y-69479534D01*
X154316662Y-69827197D01*
X154531266Y-70224098D01*
X154664692Y-70655127D01*
X154712979Y-71114552D01*
X154713001Y-71120794D01*
X154713000Y-116828894D01*
X154667881Y-117289055D01*
X154537468Y-117721003D01*
X154325640Y-118119393D01*
X154040466Y-118469051D01*
X153692803Y-118756662D01*
X153295901Y-118971266D01*
X152864877Y-119104690D01*
X152405448Y-119152979D01*
X152399492Y-119153000D01*
X114311106Y-119153000D01*
X113850945Y-119107881D01*
X113418997Y-118977468D01*
X113020607Y-118765640D01*
X112670949Y-118480466D01*
X112383338Y-118132803D01*
X112168734Y-117735901D01*
X112137149Y-117633866D01*
X131475091Y-117633866D01*
X131475091Y-118305281D01*
X131485611Y-118412090D01*
X131527181Y-118549130D01*
X131594689Y-118675426D01*
X131685538Y-118786127D01*
X131796239Y-118876976D01*
X131922535Y-118944483D01*
X132059575Y-118986053D01*
X132202091Y-119000090D01*
X132344608Y-118986053D01*
X132481648Y-118944483D01*
X132607944Y-118876976D01*
X132718645Y-118786127D01*
X132809494Y-118675426D01*
X132877001Y-118549130D01*
X132918571Y-118412090D01*
X132929091Y-118305281D01*
X132929091Y-117633866D01*
X140455091Y-117633866D01*
X140455091Y-118305281D01*
X140465611Y-118412090D01*
X140507181Y-118549130D01*
X140574689Y-118675426D01*
X140665538Y-118786127D01*
X140776239Y-118876976D01*
X140902535Y-118944483D01*
X141039575Y-118986053D01*
X141182091Y-119000090D01*
X141324608Y-118986053D01*
X141461648Y-118944483D01*
X141587944Y-118876976D01*
X141698645Y-118786127D01*
X141789494Y-118675426D01*
X141857001Y-118549130D01*
X141898571Y-118412090D01*
X141909091Y-118305281D01*
X141909091Y-117633865D01*
X141898571Y-117527056D01*
X141857001Y-117390016D01*
X141789494Y-117263720D01*
X141698644Y-117153019D01*
X141587943Y-117062170D01*
X141461647Y-116994663D01*
X141324607Y-116953093D01*
X141182091Y-116939056D01*
X141039574Y-116953093D01*
X140902534Y-116994663D01*
X140776238Y-117062170D01*
X140665537Y-117153020D01*
X140574688Y-117263721D01*
X140507181Y-117390017D01*
X140465611Y-117527057D01*
X140455091Y-117633866D01*
X132929091Y-117633866D01*
X132929091Y-117633865D01*
X132918571Y-117527056D01*
X132877001Y-117390016D01*
X132809494Y-117263720D01*
X132718644Y-117153019D01*
X132607943Y-117062170D01*
X132481647Y-116994663D01*
X132344607Y-116953093D01*
X132202091Y-116939056D01*
X132059574Y-116953093D01*
X131922534Y-116994663D01*
X131796238Y-117062170D01*
X131685537Y-117153020D01*
X131594688Y-117263721D01*
X131527181Y-117390017D01*
X131485611Y-117527057D01*
X131475091Y-117633866D01*
X112137149Y-117633866D01*
X112035310Y-117304877D01*
X111987021Y-116845448D01*
X111987000Y-116839492D01*
X111987000Y-115429453D01*
X114143000Y-115429453D01*
X114143000Y-115710547D01*
X114197838Y-115986241D01*
X114305409Y-116245938D01*
X114461576Y-116479660D01*
X114660340Y-116678424D01*
X114894062Y-116834591D01*
X115153759Y-116942162D01*
X115429453Y-116997000D01*
X115710547Y-116997000D01*
X115986241Y-116942162D01*
X116245938Y-116834591D01*
X116479660Y-116678424D01*
X116678424Y-116479660D01*
X116834591Y-116245938D01*
X116942162Y-115986241D01*
X116997000Y-115710547D01*
X116997000Y-115429453D01*
X149703000Y-115429453D01*
X149703000Y-115710547D01*
X149757838Y-115986241D01*
X149865409Y-116245938D01*
X150021576Y-116479660D01*
X150220340Y-116678424D01*
X150454062Y-116834591D01*
X150713759Y-116942162D01*
X150989453Y-116997000D01*
X151270547Y-116997000D01*
X151546241Y-116942162D01*
X151805938Y-116834591D01*
X152039660Y-116678424D01*
X152238424Y-116479660D01*
X152394591Y-116245938D01*
X152502162Y-115986241D01*
X152557000Y-115710547D01*
X152557000Y-115429453D01*
X152502162Y-115153759D01*
X152394591Y-114894062D01*
X152238424Y-114660340D01*
X152039660Y-114461576D01*
X151805938Y-114305409D01*
X151546241Y-114197838D01*
X151270547Y-114143000D01*
X150989453Y-114143000D01*
X150713759Y-114197838D01*
X150454062Y-114305409D01*
X150220340Y-114461576D01*
X150021576Y-114660340D01*
X149865409Y-114894062D01*
X149757838Y-115153759D01*
X149703000Y-115429453D01*
X116997000Y-115429453D01*
X116942162Y-115153759D01*
X116834591Y-114894062D01*
X116678424Y-114660340D01*
X116479660Y-114461576D01*
X116245938Y-114305409D01*
X115986241Y-114197838D01*
X115710547Y-114143000D01*
X115429453Y-114143000D01*
X115153759Y-114197838D01*
X114894062Y-114305409D01*
X114660340Y-114461576D01*
X114461576Y-114660340D01*
X114305409Y-114894062D01*
X114197838Y-115153759D01*
X114143000Y-115429453D01*
X111987000Y-115429453D01*
X111987000Y-111683866D01*
X131835091Y-111683866D01*
X131835091Y-112355281D01*
X131845611Y-112462090D01*
X131887181Y-112599130D01*
X131954689Y-112725426D01*
X132045538Y-112836127D01*
X132156239Y-112926976D01*
X132282535Y-112994483D01*
X132419575Y-113036053D01*
X132562091Y-113050090D01*
X132704608Y-113036053D01*
X132841648Y-112994483D01*
X132967944Y-112926976D01*
X133078645Y-112836127D01*
X133146068Y-112753970D01*
X135449091Y-112753970D01*
X135449091Y-112897176D01*
X135477029Y-113037631D01*
X135531832Y-113169937D01*
X135611393Y-113289009D01*
X135712655Y-113390271D01*
X135831727Y-113469832D01*
X135964033Y-113524635D01*
X136104488Y-113552573D01*
X136247694Y-113552573D01*
X136388149Y-113524635D01*
X136520455Y-113469832D01*
X136639527Y-113390271D01*
X136740789Y-113289009D01*
X136820350Y-113169937D01*
X136875153Y-113037631D01*
X136903091Y-112897176D01*
X136903091Y-112753970D01*
X136900408Y-112740480D01*
X138130997Y-111509891D01*
X138148250Y-111495732D01*
X138204734Y-111426906D01*
X138246705Y-111348383D01*
X138272551Y-111263180D01*
X138279091Y-111196778D01*
X138279091Y-111196777D01*
X138281278Y-111174573D01*
X138279091Y-111152368D01*
X138279091Y-110769573D01*
X139486937Y-110769573D01*
X139499526Y-110897387D01*
X139536808Y-111020290D01*
X139597350Y-111133557D01*
X139678827Y-111232837D01*
X139778107Y-111314314D01*
X139891374Y-111374856D01*
X140014277Y-111412138D01*
X140110069Y-111421573D01*
X140157040Y-111421573D01*
X140147181Y-111440017D01*
X140105611Y-111577057D01*
X140095091Y-111683866D01*
X140095091Y-112355281D01*
X140105611Y-112462090D01*
X140147181Y-112599130D01*
X140214689Y-112725426D01*
X140305538Y-112836127D01*
X140416239Y-112926976D01*
X140542535Y-112994483D01*
X140679575Y-113036053D01*
X140822091Y-113050090D01*
X140964608Y-113036053D01*
X141101648Y-112994483D01*
X141227944Y-112926976D01*
X141338645Y-112836127D01*
X141429494Y-112725426D01*
X141497001Y-112599130D01*
X141538571Y-112462090D01*
X141549091Y-112355281D01*
X141549091Y-111683865D01*
X141538571Y-111577056D01*
X141497001Y-111440016D01*
X141429494Y-111313720D01*
X141338644Y-111203019D01*
X141227943Y-111112170D01*
X141101647Y-111044663D01*
X141043736Y-111027096D01*
X141047374Y-111020290D01*
X141084656Y-110897387D01*
X141097245Y-110769573D01*
X141084656Y-110641759D01*
X141047374Y-110518856D01*
X140986832Y-110405589D01*
X140905355Y-110306309D01*
X140806075Y-110224832D01*
X140692808Y-110164290D01*
X140569905Y-110127008D01*
X140474113Y-110117573D01*
X140110069Y-110117573D01*
X140014277Y-110127008D01*
X139891374Y-110164290D01*
X139778107Y-110224832D01*
X139678827Y-110306309D01*
X139597350Y-110405589D01*
X139536808Y-110518856D01*
X139499526Y-110641759D01*
X139486937Y-110769573D01*
X138279091Y-110769573D01*
X138279091Y-107301912D01*
X138290527Y-107294271D01*
X138391789Y-107193009D01*
X138471350Y-107073937D01*
X138526153Y-106941631D01*
X138554091Y-106801176D01*
X138554091Y-106657970D01*
X138526153Y-106517515D01*
X138471350Y-106385209D01*
X138391789Y-106266137D01*
X138290527Y-106164875D01*
X138171455Y-106085314D01*
X138039149Y-106030511D01*
X137898694Y-106002573D01*
X137755488Y-106002573D01*
X137615033Y-106030511D01*
X137482727Y-106085314D01*
X137363655Y-106164875D01*
X137262393Y-106266137D01*
X137182832Y-106385209D01*
X137128029Y-106517515D01*
X137100091Y-106657970D01*
X137100091Y-106801176D01*
X137128029Y-106941631D01*
X137182832Y-107073937D01*
X137262393Y-107193009D01*
X137363655Y-107294271D01*
X137375092Y-107301913D01*
X137375091Y-110987349D01*
X136261184Y-112101256D01*
X136247694Y-112098573D01*
X136104488Y-112098573D01*
X135964033Y-112126511D01*
X135831727Y-112181314D01*
X135712655Y-112260875D01*
X135611393Y-112362137D01*
X135531832Y-112481209D01*
X135477029Y-112613515D01*
X135449091Y-112753970D01*
X133146068Y-112753970D01*
X133169494Y-112725426D01*
X133237001Y-112599130D01*
X133278571Y-112462090D01*
X133289091Y-112355281D01*
X133289091Y-111683865D01*
X133278571Y-111577056D01*
X133237001Y-111440016D01*
X133220335Y-111408837D01*
X133282272Y-111396517D01*
X133400929Y-111347368D01*
X133507717Y-111276015D01*
X133598533Y-111185199D01*
X133669886Y-111078411D01*
X133719035Y-110959754D01*
X133744091Y-110833789D01*
X133744091Y-110705357D01*
X133719035Y-110579392D01*
X133669886Y-110460735D01*
X133598533Y-110353947D01*
X133507717Y-110263131D01*
X133400929Y-110191778D01*
X133282272Y-110142629D01*
X133156307Y-110117573D01*
X133027875Y-110117573D01*
X132901910Y-110142629D01*
X132783253Y-110191778D01*
X132676465Y-110263131D01*
X132585649Y-110353947D01*
X132514296Y-110460735D01*
X132465147Y-110579392D01*
X132440091Y-110705357D01*
X132440091Y-110833789D01*
X132465147Y-110959754D01*
X132480608Y-110997082D01*
X132419574Y-111003093D01*
X132282534Y-111044663D01*
X132156238Y-111112170D01*
X132045537Y-111203020D01*
X131954688Y-111313721D01*
X131887181Y-111440017D01*
X131845611Y-111577057D01*
X131835091Y-111683866D01*
X111987000Y-111683866D01*
X111987000Y-106022970D01*
X134560091Y-106022970D01*
X134560091Y-106166176D01*
X134588029Y-106306631D01*
X134642832Y-106438937D01*
X134722393Y-106558009D01*
X134823655Y-106659271D01*
X134942727Y-106738832D01*
X135075033Y-106793635D01*
X135215488Y-106821573D01*
X135358694Y-106821573D01*
X135372184Y-106818890D01*
X135946001Y-107392707D01*
X135946000Y-108139660D01*
X135934564Y-108147302D01*
X135833302Y-108248564D01*
X135753741Y-108367636D01*
X135698938Y-108499942D01*
X135671000Y-108640397D01*
X135671000Y-108783603D01*
X135698938Y-108924058D01*
X135753741Y-109056364D01*
X135833302Y-109175436D01*
X135934564Y-109276698D01*
X136053636Y-109356259D01*
X136185942Y-109411062D01*
X136326397Y-109439000D01*
X136469603Y-109439000D01*
X136610058Y-109411062D01*
X136742364Y-109356259D01*
X136861436Y-109276698D01*
X136962698Y-109175436D01*
X137042259Y-109056364D01*
X137097062Y-108924058D01*
X137125000Y-108783603D01*
X137125000Y-108640397D01*
X137097062Y-108499942D01*
X137042259Y-108367636D01*
X136962698Y-108248564D01*
X136861436Y-108147302D01*
X136850000Y-108139661D01*
X136850000Y-107227687D01*
X136852187Y-107205482D01*
X136843460Y-107116874D01*
X136817614Y-107031672D01*
X136775643Y-106953149D01*
X136719159Y-106884323D01*
X136701905Y-106870163D01*
X136011408Y-106179666D01*
X136014091Y-106166176D01*
X136014091Y-106022970D01*
X135986153Y-105882515D01*
X135931350Y-105750209D01*
X135851789Y-105631137D01*
X135750527Y-105529875D01*
X135631455Y-105450314D01*
X135499149Y-105395511D01*
X135358694Y-105367573D01*
X135215488Y-105367573D01*
X135075033Y-105395511D01*
X134942727Y-105450314D01*
X134823655Y-105529875D01*
X134722393Y-105631137D01*
X134642832Y-105750209D01*
X134588029Y-105882515D01*
X134560091Y-106022970D01*
X111987000Y-106022970D01*
X111987000Y-101346000D01*
X139279306Y-101346000D01*
X139302031Y-101576732D01*
X139369333Y-101798597D01*
X139478626Y-102003070D01*
X139625709Y-102182291D01*
X139804930Y-102329374D01*
X140009403Y-102438667D01*
X140231268Y-102505969D01*
X140404188Y-102523000D01*
X140519812Y-102523000D01*
X140692732Y-102505969D01*
X140914597Y-102438667D01*
X141119070Y-102329374D01*
X141298291Y-102182291D01*
X141445374Y-102003070D01*
X141554667Y-101798597D01*
X141621969Y-101576732D01*
X141644694Y-101346000D01*
X141819306Y-101346000D01*
X141842031Y-101576732D01*
X141909333Y-101798597D01*
X142018626Y-102003070D01*
X142165709Y-102182291D01*
X142344930Y-102329374D01*
X142549403Y-102438667D01*
X142771268Y-102505969D01*
X142944188Y-102523000D01*
X143059812Y-102523000D01*
X143232732Y-102505969D01*
X143454597Y-102438667D01*
X143659070Y-102329374D01*
X143838291Y-102182291D01*
X143985374Y-102003070D01*
X144094667Y-101798597D01*
X144161969Y-101576732D01*
X144184694Y-101346000D01*
X144359306Y-101346000D01*
X144382031Y-101576732D01*
X144449333Y-101798597D01*
X144558626Y-102003070D01*
X144705709Y-102182291D01*
X144884930Y-102329374D01*
X145089403Y-102438667D01*
X145311268Y-102505969D01*
X145484188Y-102523000D01*
X145599812Y-102523000D01*
X145772732Y-102505969D01*
X145994597Y-102438667D01*
X146199070Y-102329374D01*
X146378291Y-102182291D01*
X146525374Y-102003070D01*
X146634667Y-101798597D01*
X146701969Y-101576732D01*
X146709058Y-101504750D01*
X147105000Y-101504750D01*
X147105000Y-102208508D01*
X147109880Y-102233044D01*
X147119454Y-102256157D01*
X147133352Y-102276957D01*
X147151042Y-102294647D01*
X147171843Y-102308546D01*
X147194955Y-102318119D01*
X147219491Y-102323000D01*
X147923250Y-102323000D01*
X147955000Y-102291250D01*
X147955000Y-101473000D01*
X148209000Y-101473000D01*
X148209000Y-102291250D01*
X148240750Y-102323000D01*
X148944509Y-102323000D01*
X148969045Y-102318119D01*
X148992157Y-102308546D01*
X149012958Y-102294647D01*
X149030648Y-102276957D01*
X149044546Y-102256157D01*
X149054120Y-102233044D01*
X149059000Y-102208508D01*
X149059000Y-101504750D01*
X149027250Y-101473000D01*
X148209000Y-101473000D01*
X147955000Y-101473000D01*
X147136750Y-101473000D01*
X147105000Y-101504750D01*
X146709058Y-101504750D01*
X146724694Y-101346000D01*
X146701969Y-101115268D01*
X146634667Y-100893403D01*
X146525374Y-100688930D01*
X146378291Y-100509709D01*
X146346346Y-100483492D01*
X147105000Y-100483492D01*
X147105000Y-101187250D01*
X147136750Y-101219000D01*
X147955000Y-101219000D01*
X147955000Y-100400750D01*
X148209000Y-100400750D01*
X148209000Y-101219000D01*
X149027250Y-101219000D01*
X149059000Y-101187250D01*
X149059000Y-100483492D01*
X149054120Y-100458956D01*
X149044546Y-100435843D01*
X149030648Y-100415043D01*
X149012958Y-100397353D01*
X148992157Y-100383454D01*
X148969045Y-100373881D01*
X148944509Y-100369000D01*
X148240750Y-100369000D01*
X148209000Y-100400750D01*
X147955000Y-100400750D01*
X147923250Y-100369000D01*
X147219491Y-100369000D01*
X147194955Y-100373881D01*
X147171843Y-100383454D01*
X147151042Y-100397353D01*
X147133352Y-100415043D01*
X147119454Y-100435843D01*
X147109880Y-100458956D01*
X147105000Y-100483492D01*
X146346346Y-100483492D01*
X146199070Y-100362626D01*
X145994597Y-100253333D01*
X145772732Y-100186031D01*
X145599812Y-100169000D01*
X145484188Y-100169000D01*
X145311268Y-100186031D01*
X145089403Y-100253333D01*
X144884930Y-100362626D01*
X144705709Y-100509709D01*
X144558626Y-100688930D01*
X144449333Y-100893403D01*
X144382031Y-101115268D01*
X144359306Y-101346000D01*
X144184694Y-101346000D01*
X144161969Y-101115268D01*
X144094667Y-100893403D01*
X143985374Y-100688930D01*
X143838291Y-100509709D01*
X143659070Y-100362626D01*
X143454597Y-100253333D01*
X143232732Y-100186031D01*
X143059812Y-100169000D01*
X142944188Y-100169000D01*
X142771268Y-100186031D01*
X142549403Y-100253333D01*
X142344930Y-100362626D01*
X142165709Y-100509709D01*
X142018626Y-100688930D01*
X141909333Y-100893403D01*
X141842031Y-101115268D01*
X141819306Y-101346000D01*
X141644694Y-101346000D01*
X141621969Y-101115268D01*
X141554667Y-100893403D01*
X141445374Y-100688930D01*
X141298291Y-100509709D01*
X141119070Y-100362626D01*
X140914597Y-100253333D01*
X140692732Y-100186031D01*
X140519812Y-100169000D01*
X140404188Y-100169000D01*
X140231268Y-100186031D01*
X140009403Y-100253333D01*
X139804930Y-100362626D01*
X139625709Y-100509709D01*
X139478626Y-100688930D01*
X139369333Y-100893403D01*
X139302031Y-101115268D01*
X139279306Y-101346000D01*
X111987000Y-101346000D01*
X111987000Y-96774000D01*
X144613306Y-96774000D01*
X144636031Y-97004732D01*
X144703333Y-97226597D01*
X144812626Y-97431070D01*
X144959709Y-97610291D01*
X145138930Y-97757374D01*
X145343403Y-97866667D01*
X145565268Y-97933969D01*
X145738188Y-97951000D01*
X145853812Y-97951000D01*
X146026732Y-97933969D01*
X146248597Y-97866667D01*
X146453070Y-97757374D01*
X146632291Y-97610291D01*
X146779374Y-97431070D01*
X146888667Y-97226597D01*
X146955969Y-97004732D01*
X146963058Y-96932750D01*
X147359000Y-96932750D01*
X147359000Y-97636508D01*
X147363880Y-97661044D01*
X147373454Y-97684157D01*
X147387352Y-97704957D01*
X147405042Y-97722647D01*
X147425843Y-97736546D01*
X147448955Y-97746119D01*
X147473491Y-97751000D01*
X148177250Y-97751000D01*
X148209000Y-97719250D01*
X148209000Y-96901000D01*
X148463000Y-96901000D01*
X148463000Y-97719250D01*
X148494750Y-97751000D01*
X149198509Y-97751000D01*
X149223045Y-97746119D01*
X149246157Y-97736546D01*
X149266958Y-97722647D01*
X149284648Y-97704957D01*
X149298546Y-97684157D01*
X149308120Y-97661044D01*
X149313000Y-97636508D01*
X149313000Y-96932750D01*
X149281250Y-96901000D01*
X148463000Y-96901000D01*
X148209000Y-96901000D01*
X147390750Y-96901000D01*
X147359000Y-96932750D01*
X146963058Y-96932750D01*
X146978694Y-96774000D01*
X146955969Y-96543268D01*
X146888667Y-96321403D01*
X146779374Y-96116930D01*
X146632291Y-95937709D01*
X146600346Y-95911492D01*
X147359000Y-95911492D01*
X147359000Y-96615250D01*
X147390750Y-96647000D01*
X148209000Y-96647000D01*
X148209000Y-95828750D01*
X148463000Y-95828750D01*
X148463000Y-96647000D01*
X149281250Y-96647000D01*
X149313000Y-96615250D01*
X149313000Y-95911492D01*
X149308120Y-95886956D01*
X149298546Y-95863843D01*
X149284648Y-95843043D01*
X149266958Y-95825353D01*
X149246157Y-95811454D01*
X149223045Y-95801881D01*
X149198509Y-95797000D01*
X148494750Y-95797000D01*
X148463000Y-95828750D01*
X148209000Y-95828750D01*
X148177250Y-95797000D01*
X147473491Y-95797000D01*
X147448955Y-95801881D01*
X147425843Y-95811454D01*
X147405042Y-95825353D01*
X147387352Y-95843043D01*
X147373454Y-95863843D01*
X147363880Y-95886956D01*
X147359000Y-95911492D01*
X146600346Y-95911492D01*
X146453070Y-95790626D01*
X146248597Y-95681333D01*
X146026732Y-95614031D01*
X145853812Y-95597000D01*
X145738188Y-95597000D01*
X145565268Y-95614031D01*
X145343403Y-95681333D01*
X145138930Y-95790626D01*
X144959709Y-95937709D01*
X144812626Y-96116930D01*
X144703333Y-96321403D01*
X144636031Y-96543268D01*
X144613306Y-96774000D01*
X111987000Y-96774000D01*
X111987000Y-85364515D01*
X125730000Y-85364515D01*
X125754776Y-85362075D01*
X125778601Y-85354848D01*
X125800557Y-85343112D01*
X125819803Y-85327318D01*
X128359803Y-82787318D01*
X128375597Y-82768072D01*
X128387333Y-82746116D01*
X128394560Y-82722291D01*
X128397000Y-82697515D01*
X128397000Y-68854515D01*
X152856988Y-68854515D01*
X153281004Y-68982533D01*
X153281004Y-68982533D01*
G37*
X153281004Y-68982533D02*
X153679393Y-69194360D01*
X154029051Y-69479534D01*
X154316662Y-69827197D01*
X154531266Y-70224098D01*
X154664692Y-70655127D01*
X154712979Y-71114552D01*
X154713001Y-71120794D01*
X154713000Y-116828894D01*
X154667881Y-117289055D01*
X154537468Y-117721003D01*
X154325640Y-118119393D01*
X154040466Y-118469051D01*
X153692803Y-118756662D01*
X153295901Y-118971266D01*
X152864877Y-119104690D01*
X152405448Y-119152979D01*
X152399492Y-119153000D01*
X114311106Y-119153000D01*
X113850945Y-119107881D01*
X113418997Y-118977468D01*
X113020607Y-118765640D01*
X112670949Y-118480466D01*
X112383338Y-118132803D01*
X112168734Y-117735901D01*
X112137149Y-117633866D01*
X131475091Y-117633866D01*
X131475091Y-118305281D01*
X131485611Y-118412090D01*
X131527181Y-118549130D01*
X131594689Y-118675426D01*
X131685538Y-118786127D01*
X131796239Y-118876976D01*
X131922535Y-118944483D01*
X132059575Y-118986053D01*
X132202091Y-119000090D01*
X132344608Y-118986053D01*
X132481648Y-118944483D01*
X132607944Y-118876976D01*
X132718645Y-118786127D01*
X132809494Y-118675426D01*
X132877001Y-118549130D01*
X132918571Y-118412090D01*
X132929091Y-118305281D01*
X132929091Y-117633866D01*
X140455091Y-117633866D01*
X140455091Y-118305281D01*
X140465611Y-118412090D01*
X140507181Y-118549130D01*
X140574689Y-118675426D01*
X140665538Y-118786127D01*
X140776239Y-118876976D01*
X140902535Y-118944483D01*
X141039575Y-118986053D01*
X141182091Y-119000090D01*
X141324608Y-118986053D01*
X141461648Y-118944483D01*
X141587944Y-118876976D01*
X141698645Y-118786127D01*
X141789494Y-118675426D01*
X141857001Y-118549130D01*
X141898571Y-118412090D01*
X141909091Y-118305281D01*
X141909091Y-117633865D01*
X141898571Y-117527056D01*
X141857001Y-117390016D01*
X141789494Y-117263720D01*
X141698644Y-117153019D01*
X141587943Y-117062170D01*
X141461647Y-116994663D01*
X141324607Y-116953093D01*
X141182091Y-116939056D01*
X141039574Y-116953093D01*
X140902534Y-116994663D01*
X140776238Y-117062170D01*
X140665537Y-117153020D01*
X140574688Y-117263721D01*
X140507181Y-117390017D01*
X140465611Y-117527057D01*
X140455091Y-117633866D01*
X132929091Y-117633866D01*
X132929091Y-117633865D01*
X132918571Y-117527056D01*
X132877001Y-117390016D01*
X132809494Y-117263720D01*
X132718644Y-117153019D01*
X132607943Y-117062170D01*
X132481647Y-116994663D01*
X132344607Y-116953093D01*
X132202091Y-116939056D01*
X132059574Y-116953093D01*
X131922534Y-116994663D01*
X131796238Y-117062170D01*
X131685537Y-117153020D01*
X131594688Y-117263721D01*
X131527181Y-117390017D01*
X131485611Y-117527057D01*
X131475091Y-117633866D01*
X112137149Y-117633866D01*
X112035310Y-117304877D01*
X111987021Y-116845448D01*
X111987000Y-116839492D01*
X111987000Y-115429453D01*
X114143000Y-115429453D01*
X114143000Y-115710547D01*
X114197838Y-115986241D01*
X114305409Y-116245938D01*
X114461576Y-116479660D01*
X114660340Y-116678424D01*
X114894062Y-116834591D01*
X115153759Y-116942162D01*
X115429453Y-116997000D01*
X115710547Y-116997000D01*
X115986241Y-116942162D01*
X116245938Y-116834591D01*
X116479660Y-116678424D01*
X116678424Y-116479660D01*
X116834591Y-116245938D01*
X116942162Y-115986241D01*
X116997000Y-115710547D01*
X116997000Y-115429453D01*
X149703000Y-115429453D01*
X149703000Y-115710547D01*
X149757838Y-115986241D01*
X149865409Y-116245938D01*
X150021576Y-116479660D01*
X150220340Y-116678424D01*
X150454062Y-116834591D01*
X150713759Y-116942162D01*
X150989453Y-116997000D01*
X151270547Y-116997000D01*
X151546241Y-116942162D01*
X151805938Y-116834591D01*
X152039660Y-116678424D01*
X152238424Y-116479660D01*
X152394591Y-116245938D01*
X152502162Y-115986241D01*
X152557000Y-115710547D01*
X152557000Y-115429453D01*
X152502162Y-115153759D01*
X152394591Y-114894062D01*
X152238424Y-114660340D01*
X152039660Y-114461576D01*
X151805938Y-114305409D01*
X151546241Y-114197838D01*
X151270547Y-114143000D01*
X150989453Y-114143000D01*
X150713759Y-114197838D01*
X150454062Y-114305409D01*
X150220340Y-114461576D01*
X150021576Y-114660340D01*
X149865409Y-114894062D01*
X149757838Y-115153759D01*
X149703000Y-115429453D01*
X116997000Y-115429453D01*
X116942162Y-115153759D01*
X116834591Y-114894062D01*
X116678424Y-114660340D01*
X116479660Y-114461576D01*
X116245938Y-114305409D01*
X115986241Y-114197838D01*
X115710547Y-114143000D01*
X115429453Y-114143000D01*
X115153759Y-114197838D01*
X114894062Y-114305409D01*
X114660340Y-114461576D01*
X114461576Y-114660340D01*
X114305409Y-114894062D01*
X114197838Y-115153759D01*
X114143000Y-115429453D01*
X111987000Y-115429453D01*
X111987000Y-111683866D01*
X131835091Y-111683866D01*
X131835091Y-112355281D01*
X131845611Y-112462090D01*
X131887181Y-112599130D01*
X131954689Y-112725426D01*
X132045538Y-112836127D01*
X132156239Y-112926976D01*
X132282535Y-112994483D01*
X132419575Y-113036053D01*
X132562091Y-113050090D01*
X132704608Y-113036053D01*
X132841648Y-112994483D01*
X132967944Y-112926976D01*
X133078645Y-112836127D01*
X133146068Y-112753970D01*
X135449091Y-112753970D01*
X135449091Y-112897176D01*
X135477029Y-113037631D01*
X135531832Y-113169937D01*
X135611393Y-113289009D01*
X135712655Y-113390271D01*
X135831727Y-113469832D01*
X135964033Y-113524635D01*
X136104488Y-113552573D01*
X136247694Y-113552573D01*
X136388149Y-113524635D01*
X136520455Y-113469832D01*
X136639527Y-113390271D01*
X136740789Y-113289009D01*
X136820350Y-113169937D01*
X136875153Y-113037631D01*
X136903091Y-112897176D01*
X136903091Y-112753970D01*
X136900408Y-112740480D01*
X138130997Y-111509891D01*
X138148250Y-111495732D01*
X138204734Y-111426906D01*
X138246705Y-111348383D01*
X138272551Y-111263180D01*
X138279091Y-111196778D01*
X138279091Y-111196777D01*
X138281278Y-111174573D01*
X138279091Y-111152368D01*
X138279091Y-110769573D01*
X139486937Y-110769573D01*
X139499526Y-110897387D01*
X139536808Y-111020290D01*
X139597350Y-111133557D01*
X139678827Y-111232837D01*
X139778107Y-111314314D01*
X139891374Y-111374856D01*
X140014277Y-111412138D01*
X140110069Y-111421573D01*
X140157040Y-111421573D01*
X140147181Y-111440017D01*
X140105611Y-111577057D01*
X140095091Y-111683866D01*
X140095091Y-112355281D01*
X140105611Y-112462090D01*
X140147181Y-112599130D01*
X140214689Y-112725426D01*
X140305538Y-112836127D01*
X140416239Y-112926976D01*
X140542535Y-112994483D01*
X140679575Y-113036053D01*
X140822091Y-113050090D01*
X140964608Y-113036053D01*
X141101648Y-112994483D01*
X141227944Y-112926976D01*
X141338645Y-112836127D01*
X141429494Y-112725426D01*
X141497001Y-112599130D01*
X141538571Y-112462090D01*
X141549091Y-112355281D01*
X141549091Y-111683865D01*
X141538571Y-111577056D01*
X141497001Y-111440016D01*
X141429494Y-111313720D01*
X141338644Y-111203019D01*
X141227943Y-111112170D01*
X141101647Y-111044663D01*
X141043736Y-111027096D01*
X141047374Y-111020290D01*
X141084656Y-110897387D01*
X141097245Y-110769573D01*
X141084656Y-110641759D01*
X141047374Y-110518856D01*
X140986832Y-110405589D01*
X140905355Y-110306309D01*
X140806075Y-110224832D01*
X140692808Y-110164290D01*
X140569905Y-110127008D01*
X140474113Y-110117573D01*
X140110069Y-110117573D01*
X140014277Y-110127008D01*
X139891374Y-110164290D01*
X139778107Y-110224832D01*
X139678827Y-110306309D01*
X139597350Y-110405589D01*
X139536808Y-110518856D01*
X139499526Y-110641759D01*
X139486937Y-110769573D01*
X138279091Y-110769573D01*
X138279091Y-107301912D01*
X138290527Y-107294271D01*
X138391789Y-107193009D01*
X138471350Y-107073937D01*
X138526153Y-106941631D01*
X138554091Y-106801176D01*
X138554091Y-106657970D01*
X138526153Y-106517515D01*
X138471350Y-106385209D01*
X138391789Y-106266137D01*
X138290527Y-106164875D01*
X138171455Y-106085314D01*
X138039149Y-106030511D01*
X137898694Y-106002573D01*
X137755488Y-106002573D01*
X137615033Y-106030511D01*
X137482727Y-106085314D01*
X137363655Y-106164875D01*
X137262393Y-106266137D01*
X137182832Y-106385209D01*
X137128029Y-106517515D01*
X137100091Y-106657970D01*
X137100091Y-106801176D01*
X137128029Y-106941631D01*
X137182832Y-107073937D01*
X137262393Y-107193009D01*
X137363655Y-107294271D01*
X137375092Y-107301913D01*
X137375091Y-110987349D01*
X136261184Y-112101256D01*
X136247694Y-112098573D01*
X136104488Y-112098573D01*
X135964033Y-112126511D01*
X135831727Y-112181314D01*
X135712655Y-112260875D01*
X135611393Y-112362137D01*
X135531832Y-112481209D01*
X135477029Y-112613515D01*
X135449091Y-112753970D01*
X133146068Y-112753970D01*
X133169494Y-112725426D01*
X133237001Y-112599130D01*
X133278571Y-112462090D01*
X133289091Y-112355281D01*
X133289091Y-111683865D01*
X133278571Y-111577056D01*
X133237001Y-111440016D01*
X133220335Y-111408837D01*
X133282272Y-111396517D01*
X133400929Y-111347368D01*
X133507717Y-111276015D01*
X133598533Y-111185199D01*
X133669886Y-111078411D01*
X133719035Y-110959754D01*
X133744091Y-110833789D01*
X133744091Y-110705357D01*
X133719035Y-110579392D01*
X133669886Y-110460735D01*
X133598533Y-110353947D01*
X133507717Y-110263131D01*
X133400929Y-110191778D01*
X133282272Y-110142629D01*
X133156307Y-110117573D01*
X133027875Y-110117573D01*
X132901910Y-110142629D01*
X132783253Y-110191778D01*
X132676465Y-110263131D01*
X132585649Y-110353947D01*
X132514296Y-110460735D01*
X132465147Y-110579392D01*
X132440091Y-110705357D01*
X132440091Y-110833789D01*
X132465147Y-110959754D01*
X132480608Y-110997082D01*
X132419574Y-111003093D01*
X132282534Y-111044663D01*
X132156238Y-111112170D01*
X132045537Y-111203020D01*
X131954688Y-111313721D01*
X131887181Y-111440017D01*
X131845611Y-111577057D01*
X131835091Y-111683866D01*
X111987000Y-111683866D01*
X111987000Y-106022970D01*
X134560091Y-106022970D01*
X134560091Y-106166176D01*
X134588029Y-106306631D01*
X134642832Y-106438937D01*
X134722393Y-106558009D01*
X134823655Y-106659271D01*
X134942727Y-106738832D01*
X135075033Y-106793635D01*
X135215488Y-106821573D01*
X135358694Y-106821573D01*
X135372184Y-106818890D01*
X135946001Y-107392707D01*
X135946000Y-108139660D01*
X135934564Y-108147302D01*
X135833302Y-108248564D01*
X135753741Y-108367636D01*
X135698938Y-108499942D01*
X135671000Y-108640397D01*
X135671000Y-108783603D01*
X135698938Y-108924058D01*
X135753741Y-109056364D01*
X135833302Y-109175436D01*
X135934564Y-109276698D01*
X136053636Y-109356259D01*
X136185942Y-109411062D01*
X136326397Y-109439000D01*
X136469603Y-109439000D01*
X136610058Y-109411062D01*
X136742364Y-109356259D01*
X136861436Y-109276698D01*
X136962698Y-109175436D01*
X137042259Y-109056364D01*
X137097062Y-108924058D01*
X137125000Y-108783603D01*
X137125000Y-108640397D01*
X137097062Y-108499942D01*
X137042259Y-108367636D01*
X136962698Y-108248564D01*
X136861436Y-108147302D01*
X136850000Y-108139661D01*
X136850000Y-107227687D01*
X136852187Y-107205482D01*
X136843460Y-107116874D01*
X136817614Y-107031672D01*
X136775643Y-106953149D01*
X136719159Y-106884323D01*
X136701905Y-106870163D01*
X136011408Y-106179666D01*
X136014091Y-106166176D01*
X136014091Y-106022970D01*
X135986153Y-105882515D01*
X135931350Y-105750209D01*
X135851789Y-105631137D01*
X135750527Y-105529875D01*
X135631455Y-105450314D01*
X135499149Y-105395511D01*
X135358694Y-105367573D01*
X135215488Y-105367573D01*
X135075033Y-105395511D01*
X134942727Y-105450314D01*
X134823655Y-105529875D01*
X134722393Y-105631137D01*
X134642832Y-105750209D01*
X134588029Y-105882515D01*
X134560091Y-106022970D01*
X111987000Y-106022970D01*
X111987000Y-101346000D01*
X139279306Y-101346000D01*
X139302031Y-101576732D01*
X139369333Y-101798597D01*
X139478626Y-102003070D01*
X139625709Y-102182291D01*
X139804930Y-102329374D01*
X140009403Y-102438667D01*
X140231268Y-102505969D01*
X140404188Y-102523000D01*
X140519812Y-102523000D01*
X140692732Y-102505969D01*
X140914597Y-102438667D01*
X141119070Y-102329374D01*
X141298291Y-102182291D01*
X141445374Y-102003070D01*
X141554667Y-101798597D01*
X141621969Y-101576732D01*
X141644694Y-101346000D01*
X141819306Y-101346000D01*
X141842031Y-101576732D01*
X141909333Y-101798597D01*
X142018626Y-102003070D01*
X142165709Y-102182291D01*
X142344930Y-102329374D01*
X142549403Y-102438667D01*
X142771268Y-102505969D01*
X142944188Y-102523000D01*
X143059812Y-102523000D01*
X143232732Y-102505969D01*
X143454597Y-102438667D01*
X143659070Y-102329374D01*
X143838291Y-102182291D01*
X143985374Y-102003070D01*
X144094667Y-101798597D01*
X144161969Y-101576732D01*
X144184694Y-101346000D01*
X144359306Y-101346000D01*
X144382031Y-101576732D01*
X144449333Y-101798597D01*
X144558626Y-102003070D01*
X144705709Y-102182291D01*
X144884930Y-102329374D01*
X145089403Y-102438667D01*
X145311268Y-102505969D01*
X145484188Y-102523000D01*
X145599812Y-102523000D01*
X145772732Y-102505969D01*
X145994597Y-102438667D01*
X146199070Y-102329374D01*
X146378291Y-102182291D01*
X146525374Y-102003070D01*
X146634667Y-101798597D01*
X146701969Y-101576732D01*
X146709058Y-101504750D01*
X147105000Y-101504750D01*
X147105000Y-102208508D01*
X147109880Y-102233044D01*
X147119454Y-102256157D01*
X147133352Y-102276957D01*
X147151042Y-102294647D01*
X147171843Y-102308546D01*
X147194955Y-102318119D01*
X147219491Y-102323000D01*
X147923250Y-102323000D01*
X147955000Y-102291250D01*
X147955000Y-101473000D01*
X148209000Y-101473000D01*
X148209000Y-102291250D01*
X148240750Y-102323000D01*
X148944509Y-102323000D01*
X148969045Y-102318119D01*
X148992157Y-102308546D01*
X149012958Y-102294647D01*
X149030648Y-102276957D01*
X149044546Y-102256157D01*
X149054120Y-102233044D01*
X149059000Y-102208508D01*
X149059000Y-101504750D01*
X149027250Y-101473000D01*
X148209000Y-101473000D01*
X147955000Y-101473000D01*
X147136750Y-101473000D01*
X147105000Y-101504750D01*
X146709058Y-101504750D01*
X146724694Y-101346000D01*
X146701969Y-101115268D01*
X146634667Y-100893403D01*
X146525374Y-100688930D01*
X146378291Y-100509709D01*
X146346346Y-100483492D01*
X147105000Y-100483492D01*
X147105000Y-101187250D01*
X147136750Y-101219000D01*
X147955000Y-101219000D01*
X147955000Y-100400750D01*
X148209000Y-100400750D01*
X148209000Y-101219000D01*
X149027250Y-101219000D01*
X149059000Y-101187250D01*
X149059000Y-100483492D01*
X149054120Y-100458956D01*
X149044546Y-100435843D01*
X149030648Y-100415043D01*
X149012958Y-100397353D01*
X148992157Y-100383454D01*
X148969045Y-100373881D01*
X148944509Y-100369000D01*
X148240750Y-100369000D01*
X148209000Y-100400750D01*
X147955000Y-100400750D01*
X147923250Y-100369000D01*
X147219491Y-100369000D01*
X147194955Y-100373881D01*
X147171843Y-100383454D01*
X147151042Y-100397353D01*
X147133352Y-100415043D01*
X147119454Y-100435843D01*
X147109880Y-100458956D01*
X147105000Y-100483492D01*
X146346346Y-100483492D01*
X146199070Y-100362626D01*
X145994597Y-100253333D01*
X145772732Y-100186031D01*
X145599812Y-100169000D01*
X145484188Y-100169000D01*
X145311268Y-100186031D01*
X145089403Y-100253333D01*
X144884930Y-100362626D01*
X144705709Y-100509709D01*
X144558626Y-100688930D01*
X144449333Y-100893403D01*
X144382031Y-101115268D01*
X144359306Y-101346000D01*
X144184694Y-101346000D01*
X144161969Y-101115268D01*
X144094667Y-100893403D01*
X143985374Y-100688930D01*
X143838291Y-100509709D01*
X143659070Y-100362626D01*
X143454597Y-100253333D01*
X143232732Y-100186031D01*
X143059812Y-100169000D01*
X142944188Y-100169000D01*
X142771268Y-100186031D01*
X142549403Y-100253333D01*
X142344930Y-100362626D01*
X142165709Y-100509709D01*
X142018626Y-100688930D01*
X141909333Y-100893403D01*
X141842031Y-101115268D01*
X141819306Y-101346000D01*
X141644694Y-101346000D01*
X141621969Y-101115268D01*
X141554667Y-100893403D01*
X141445374Y-100688930D01*
X141298291Y-100509709D01*
X141119070Y-100362626D01*
X140914597Y-100253333D01*
X140692732Y-100186031D01*
X140519812Y-100169000D01*
X140404188Y-100169000D01*
X140231268Y-100186031D01*
X140009403Y-100253333D01*
X139804930Y-100362626D01*
X139625709Y-100509709D01*
X139478626Y-100688930D01*
X139369333Y-100893403D01*
X139302031Y-101115268D01*
X139279306Y-101346000D01*
X111987000Y-101346000D01*
X111987000Y-96774000D01*
X144613306Y-96774000D01*
X144636031Y-97004732D01*
X144703333Y-97226597D01*
X144812626Y-97431070D01*
X144959709Y-97610291D01*
X145138930Y-97757374D01*
X145343403Y-97866667D01*
X145565268Y-97933969D01*
X145738188Y-97951000D01*
X145853812Y-97951000D01*
X146026732Y-97933969D01*
X146248597Y-97866667D01*
X146453070Y-97757374D01*
X146632291Y-97610291D01*
X146779374Y-97431070D01*
X146888667Y-97226597D01*
X146955969Y-97004732D01*
X146963058Y-96932750D01*
X147359000Y-96932750D01*
X147359000Y-97636508D01*
X147363880Y-97661044D01*
X147373454Y-97684157D01*
X147387352Y-97704957D01*
X147405042Y-97722647D01*
X147425843Y-97736546D01*
X147448955Y-97746119D01*
X147473491Y-97751000D01*
X148177250Y-97751000D01*
X148209000Y-97719250D01*
X148209000Y-96901000D01*
X148463000Y-96901000D01*
X148463000Y-97719250D01*
X148494750Y-97751000D01*
X149198509Y-97751000D01*
X149223045Y-97746119D01*
X149246157Y-97736546D01*
X149266958Y-97722647D01*
X149284648Y-97704957D01*
X149298546Y-97684157D01*
X149308120Y-97661044D01*
X149313000Y-97636508D01*
X149313000Y-96932750D01*
X149281250Y-96901000D01*
X148463000Y-96901000D01*
X148209000Y-96901000D01*
X147390750Y-96901000D01*
X147359000Y-96932750D01*
X146963058Y-96932750D01*
X146978694Y-96774000D01*
X146955969Y-96543268D01*
X146888667Y-96321403D01*
X146779374Y-96116930D01*
X146632291Y-95937709D01*
X146600346Y-95911492D01*
X147359000Y-95911492D01*
X147359000Y-96615250D01*
X147390750Y-96647000D01*
X148209000Y-96647000D01*
X148209000Y-95828750D01*
X148463000Y-95828750D01*
X148463000Y-96647000D01*
X149281250Y-96647000D01*
X149313000Y-96615250D01*
X149313000Y-95911492D01*
X149308120Y-95886956D01*
X149298546Y-95863843D01*
X149284648Y-95843043D01*
X149266958Y-95825353D01*
X149246157Y-95811454D01*
X149223045Y-95801881D01*
X149198509Y-95797000D01*
X148494750Y-95797000D01*
X148463000Y-95828750D01*
X148209000Y-95828750D01*
X148177250Y-95797000D01*
X147473491Y-95797000D01*
X147448955Y-95801881D01*
X147425843Y-95811454D01*
X147405042Y-95825353D01*
X147387352Y-95843043D01*
X147373454Y-95863843D01*
X147363880Y-95886956D01*
X147359000Y-95911492D01*
X146600346Y-95911492D01*
X146453070Y-95790626D01*
X146248597Y-95681333D01*
X146026732Y-95614031D01*
X145853812Y-95597000D01*
X145738188Y-95597000D01*
X145565268Y-95614031D01*
X145343403Y-95681333D01*
X145138930Y-95790626D01*
X144959709Y-95937709D01*
X144812626Y-96116930D01*
X144703333Y-96321403D01*
X144636031Y-96543268D01*
X144613306Y-96774000D01*
X111987000Y-96774000D01*
X111987000Y-85364515D01*
X125730000Y-85364515D01*
X125754776Y-85362075D01*
X125778601Y-85354848D01*
X125800557Y-85343112D01*
X125819803Y-85327318D01*
X128359803Y-82787318D01*
X128375597Y-82768072D01*
X128387333Y-82746116D01*
X128394560Y-82722291D01*
X128397000Y-82697515D01*
X128397000Y-68854515D01*
X152856988Y-68854515D01*
X153281004Y-68982533D01*
G04 #@! TD*
M02*
